<?xml version="1.0" encoding="UTF-8"?>
<!DOCTYPE svg PUBLIC "-//W3C//DTD SVG 1.1//EN" "http://www.w3.org/Graphics/SVG/1.1/DTD/svg11.dtd">
<!-- Creator: CorelDRAW -->
<svg xmlns="http://www.w3.org/2000/svg" xml:space="preserve" width="2.18504in" height="2.14567in" style="shape-rendering:geometricPrecision; text-rendering:geometricPrecision; image-rendering:optimizeQuality; fill-rule:evenodd; clip-rule:evenodd"
viewBox="0 0 2.18504 2.14567"
 xmlns:xlink="http://www.w3.org/1999/xlink">
 <defs>
  <style type="text/css">
   <![CDATA[
    .fil2 {fill:#535353;fill-rule:nonzero}
    .fil0 {fill:#555354;fill-rule:nonzero}
    .fil1 {fill:#9F2F31;fill-rule:nonzero}
   ]]>
  </style>
 </defs>
 <g id="Layer_x0020_1">
  <metadata id="CorelCorpID_0Corel-Layer"/>
  <path class="fil0" d="M0.147866 2.13781l-0.140378 0 0 -0.264929 0.134516 0 0 0.028063 -0.103488 0 0 0.0881614 0.0957323 0 0 0.027874 -0.0957323 0 0 0.0927677 0.10935 0 0 0.028063zm0.264614 0l-0.0380906 0 -0.136346 -0.211201c-0.0034685,-0.00529528 -0.00630709,-0.0108465 -0.00851181,-0.0165866l-0.00107087 0c0.000944882,0.00567717 0.00144882,0.0177874 0.00144882,0.0363898l0 0.191398 -0.0310236 0 0 -0.264929 0.0402323 0 0.132685 0.207858c0.00554724,0.0085748 0.00914173,0.0145039 0.0107205,0.0177205l0.000755906 0c-0.00125984,-0.00763386 -0.00188976,-0.020622 -0.00188976,-0.0389764l0 -0.186602 0.0310906 0 0 0.264929zm0.226083 -0.236866l-0.0764961 0 0 0.236866 -0.0310276 0 0 -0.236866 -0.0763071 0 0 -0.028063 0.183831 0 0 0.028063zm0.181996 0.236866l-0.140374 0 0 -0.264929 0.134512 0 0 0.028063 -0.103484 0 0 0.0881614 0.0957283 0 0 0.027874 -0.0957283 0 0 0.0927677 0.109346 0 0 0.028063zm0.240969 0l-0.0369567 0 -0.0443976 -0.0742874c-0.00403543,-0.00687402 -0.00800787,-0.0127402 -0.0117913,-0.0176575 -0.00384646,-0.00485827 -0.00775591,-0.00883071 -0.0117283,-0.0118583 -0.00403937,-0.00309055 -0.00832677,-0.00535827 -0.0129291,-0.00674803 -0.0046063,-0.00144882 -0.00983858,-0.00214173 -0.0156417,-0.00214173l-0.0254764 0 0 0.112693 -0.0310276 0 0 -0.264929 0.0790827 0c0.0115394,0 0.0222598,0.00144882 0.0320354,0.00435039 0.00977559,0.00290157 0.0182874,0.00725197 0.0254764,0.0131811 0.00725197,0.0059252 0.0128661,0.0133071 0.0169016,0.0220709 0.00409843,0.00883071 0.00611811,0.0191102 0.00611811,0.0309646 0,0.00920866 -0.00138583,0.0177205 -0.00416142,0.0254134 -0.00277559,0.00769685 -0.00668504,0.0145709 -0.0117953,0.0205591 -0.0051063,0.00605512 -0.0112874,0.0112244 -0.0184764,0.0154528 -0.00725197,0.00422441 -0.0153228,0.00756693 -0.0243425,0.00990157l0 0.000755906c0.00447638,0.00195276 0.00832283,0.00416142 0.0116024,0.00668504 0.00321654,0.00258268 0.00637008,0.00554724 0.00927165,0.00901575 0.00296457,0.00340551 0.00592913,0.00731496 0.00883071,0.0117323 0.00289764,0.00435039 0.00611417,0.00945669 0.00964567,0.0151969l0.0497598 0.0796496zm-0.158921 -0.236866l0 0.0961063 0.042126 0c0.00775591,0 0.0149449,-0.00119685 0.0215039,-0.0035315 0.00662205,-0.00233071 0.0122992,-0.00567323 0.0170906,-0.0100866 0.00479528,-0.00435433 0.00857874,-0.0097126 0.0112874,-0.0160827 0.0027126,-0.00630709 0.00403937,-0.0134331 0.00403937,-0.021315 0,-0.014189 -0.00454331,-0.0252283 -0.013748,-0.0331732 -0.00914567,-0.00794488 -0.0224528,-0.0119173 -0.0397953,-0.0119173l-0.0425039 0zm0.226335 0.13672l0 0.100146 -0.0310276 0 0 -0.264929 0.0727756 0c0.028315,0 0.0502598,0.00687402 0.0659016,0.020685 0.0155748,0.013811 0.0233346,0.0332323 0.0233346,0.0583937 0,0.0251024 -0.00864173,0.0456614 -0.0259213,0.0616772 -0.0173425,0.0160197 -0.0407402,0.0240276 -0.070126,0.0240276l-0.034937 0zm0 -0.13672l0 0.108657 0.0325394 0c0.021378,0 0.0377756,-0.00491732 0.049,-0.0146929 0.0112913,-0.00977559 0.0169646,-0.0236496 0.0169646,-0.0414961 0,-0.035 -0.020748,-0.0524685 -0.0621181,-0.0524685l-0.0363858 0zm0.370811 0.236866l-0.0369567 0 -0.0443976 -0.0742874c-0.00403543,-0.00687402 -0.00800787,-0.0127402 -0.0117913,-0.0176575 -0.00384646,-0.00485827 -0.00775197,-0.00883071 -0.0117244,-0.0118583 -0.00403937,-0.00309055 -0.00832677,-0.00535827 -0.0129291,-0.00674803 -0.0046063,-0.00144882 -0.00983858,-0.00214173 -0.0156417,-0.00214173l-0.0254764 0 0 0.112693 -0.0310276 0 0 -0.264929 0.0790827 0c0.0115394,0 0.0222559,0.00144882 0.0320315,0.00435039 0.00977559,0.00290157 0.0182874,0.00725197 0.0254764,0.0131811 0.00725197,0.0059252 0.0128661,0.0133071 0.0169016,0.0220709 0.00409843,0.00883071 0.00611811,0.0191102 0.00611811,0.0309646 0,0.00920866 -0.00138583,0.0177205 -0.00416142,0.0254134 -0.00277559,0.00769685 -0.00668504,0.0145709 -0.0117953,0.0205591 -0.0051063,0.00605512 -0.0112874,0.0112244 -0.0184764,0.0154528 -0.00725197,0.00422441 -0.0153228,0.00756693 -0.0243425,0.00990157l0 0.000755906c0.00447638,0.00195276 0.00832283,0.00416142 0.0116024,0.00668504 0.00321654,0.00258268 0.00637008,0.00554724 0.00927165,0.00901575 0.00296457,0.00340551 0.00592913,0.00731496 0.00883071,0.0117323 0.00289764,0.00435039 0.00611417,0.00945669 0.00964567,0.0151969l0.0497598 0.0796496zm-0.158917 -0.236866l0 0.0961063 0.042126 0c0.00775591,0 0.0149449,-0.00119685 0.0215,-0.0035315 0.00662205,-0.00233071 0.0122992,-0.00567323 0.0170906,-0.0100866 0.00479528,-0.00435433 0.00857874,-0.0097126 0.0112874,-0.0160827 0.0027126,-0.00630709 0.00403937,-0.0134331 0.00403937,-0.021315 0,-0.014189 -0.00454331,-0.0252283 -0.013748,-0.0331732 -0.00914567,-0.00794488 -0.0224488,-0.0119173 -0.0397913,-0.0119173l-0.0425039 0zm0.252185 -0.028063l0 0.0266102 -0.0258543 0 0 0.211705 0.0258543 0 0 0.0266142 -0.0827362 0 0 -0.0266142 0.0258543 0 0 -0.211705 -0.0258543 0 0 -0.0266102 0.0827362 0zm0.0314685 0.254209l0 -0.0365787c0.00416535,0.00372047 0.00914567,0.007 0.0150118,0.00996457 0.0058622,0.00296457 0.0120433,0.00548819 0.0184764,0.00750394 0.00649606,0.00201969 0.0129921,0.00359449 0.0194882,0.00473228 0.00655906,0.00107087 0.0126102,0.0016378 0.0180984,0.0016378 0.0191063,0 0.0333622,-0.0035315 0.0428189,-0.0106575 0.00939764,-0.00706299 0.014126,-0.0172165 0.014126,-0.0305236 0,-0.00718898 -0.0015748,-0.0133661 -0.00472835,-0.0186654 -0.00315354,-0.00529921 -0.00750394,-0.0101535 -0.0129921,-0.0145039 -0.00554724,-0.00441339 -0.0121063,-0.00857874 -0.0196732,-0.0125512 -0.00763386,-0.00403543 -0.0157677,-0.00825984 -0.0245354,-0.0126732 -0.00920472,-0.00466929 -0.0178465,-0.00946063 -0.0258543,-0.0142559 -0.00800787,-0.00479134 -0.0149449,-0.0100866 -0.020874,-0.0158898 -0.00592913,-0.00580315 -0.0105315,-0.0123622 -0.013937,-0.0196772 -0.00340551,-0.00731496 -0.0051063,-0.0158898 -0.0051063,-0.0257283 0,-0.0121102 0.00264567,-0.0225787 0.00794488,-0.0315315 0.00529528,-0.00895669 0.0122953,-0.0162717 0.020874,-0.0220748 0.0086378,-0.00579921 0.0184764,-0.0100906 0.0295118,-0.0129252 0.0109764,-0.00283858 0.0222638,-0.00422835 0.0336772,-0.00422835 0.0261102,0 0.0451535,0.00309055 0.0571378,0.00939764l0 0.034937c-0.0156417,-0.0108465 -0.0357598,-0.0162717 -0.0602283,-0.0162717 -0.00681102,0 -0.0135591,0.00069685 -0.0203701,0.00214567 -0.00674803,0.00138976 -0.0127992,0.00372047 -0.0180984,0.00687402 -0.00529528,0.00321654 -0.00958661,0.00737795 -0.0129291,0.0124252 -0.00334252,0.00504331 -0.00498031,0.0111614 -0.00498031,0.0184764 0,0.00674803 0.00125984,0.0126142 0.00378346,0.0175315 0.00252362,0.00491732 0.00624409,0.00939764 0.0111614,0.0134961 0.00492126,0.00403543 0.0109724,0.00800787 0.0180354,0.0117913 0.00706299,0.00384646 0.0152638,0.00801181 0.0244685,0.0126142 0.00952362,0.00466535 0.0184803,0.00958661 0.0269921,0.0147559 0.00851575,0.00517323 0.0159567,0.0109094 0.0223268,0.0171535 0.00643307,0.00630709 0.0114764,0.0132441 0.0152598,0.020874 0.00378346,0.00769291 0.00561417,0.0163976 0.00561417,0.0262362 0,0.0130512 -0.00252362,0.0241535 -0.00763386,0.0331693 -0.0051063,0.00908268 -0.0120433,0.0164606 -0.0206811,0.0220748 -0.00870472,0.00567323 -0.0187323,0.00977165 -0.0300197,0.0122953 -0.0113504,0.00252362 -0.0233346,0.00378346 -0.0358819,0.00378346 -0.00416535,0 -0.00933465,-0.000314961 -0.0155157,-0.00100787 -0.00611811,-0.000692913 -0.0124252,-0.0016378 -0.0188543,-0.00296457 -0.00637008,-0.00125984 -0.0124252,-0.00290157 -0.0181654,-0.00479134 -0.00573622,-0.0018937 -0.0103425,-0.00403543 -0.013748,-0.00637008zm0.353787 0.0107205l-0.140378 0 0 -0.264929 0.134516 0 0 0.028063 -0.103488 0 0 0.0881614 0.0957323 0 0 0.027874 -0.0957323 0 0 0.0927677 0.10935 0 0 0.028063zm0.0386535 -0.0107205l0 -0.0365787c0.00416535,0.00372047 0.00914567,0.007 0.0150118,0.00996457 0.0058622,0.00296457 0.0120433,0.00548819 0.0184764,0.00750394 0.00649606,0.00201969 0.0129921,0.00359449 0.0194882,0.00473228 0.00655906,0.00107087 0.0126102,0.0016378 0.0180984,0.0016378 0.0191063,0 0.0333622,-0.0035315 0.0428189,-0.0106575 0.00939764,-0.00706299 0.014126,-0.0172165 0.014126,-0.0305236 0,-0.00718898 -0.0015748,-0.0133661 -0.00472835,-0.0186654 -0.00315354,-0.00529921 -0.00750394,-0.0101535 -0.0129921,-0.0145039 -0.00554724,-0.00441339 -0.0121063,-0.00857874 -0.0196732,-0.0125512 -0.00763386,-0.00403543 -0.0157677,-0.00825984 -0.0245354,-0.0126732 -0.00920472,-0.00466929 -0.0178465,-0.00946063 -0.0258543,-0.0142559 -0.00800787,-0.00479134 -0.0149449,-0.0100866 -0.020874,-0.0158898 -0.00592913,-0.00580315 -0.0105315,-0.0123622 -0.013937,-0.0196772 -0.00340551,-0.00731496 -0.0051063,-0.0158898 -0.0051063,-0.0257283 0,-0.0121102 0.00264567,-0.0225787 0.00794488,-0.0315315 0.00529528,-0.00895669 0.0122953,-0.0162717 0.020874,-0.0220748 0.0086378,-0.00579921 0.0184764,-0.0100906 0.0295118,-0.0129252 0.0109764,-0.00283858 0.0222638,-0.00422835 0.0336772,-0.00422835 0.0261102,0 0.0451535,0.00309055 0.0571378,0.00939764l0 0.034937c-0.0156417,-0.0108465 -0.0357598,-0.0162717 -0.0602283,-0.0162717 -0.00681102,0 -0.0135591,0.00069685 -0.0203701,0.00214567 -0.00674803,0.00138976 -0.0127992,0.00372047 -0.0180984,0.00687402 -0.00529528,0.00321654 -0.00958661,0.00737795 -0.0129291,0.0124252 -0.00334252,0.00504331 -0.00498031,0.0111614 -0.00498031,0.0184764 0,0.00674803 0.00125984,0.0126142 0.00378346,0.0175315 0.00252362,0.00491732 0.00624409,0.00939764 0.0111614,0.0134961 0.00492126,0.00403543 0.0109724,0.00800787 0.0180354,0.0117913 0.00706299,0.00384646 0.0152638,0.00801181 0.0244685,0.0126142 0.00952362,0.00466535 0.0184803,0.00958661 0.0269921,0.0147559 0.00851575,0.00517323 0.0159567,0.0109094 0.0223268,0.0171535 0.00643307,0.00630709 0.0114764,0.0132441 0.0152598,0.020874 0.00378346,0.00769291 0.00561417,0.0163976 0.00561417,0.0262362 0,0.0130512 -0.00252362,0.0241535 -0.00763386,0.0331693 -0.0051063,0.00908268 -0.0120433,0.0164606 -0.0206811,0.0220748 -0.00870472,0.00567323 -0.0187323,0.00977165 -0.0300197,0.0122953 -0.0113504,0.00252362 -0.0233346,0.00378346 -0.0358819,0.00378346 -0.00416535,0 -0.00933465,-0.000314961 -0.0155157,-0.00100787 -0.00611811,-0.000692913 -0.0124252,-0.0016378 -0.0188543,-0.00296457 -0.00637008,-0.00125984 -0.0124252,-0.00290157 -0.0181654,-0.00479134 -0.00573622,-0.0018937 -0.0103425,-0.00403543 -0.013748,-0.00637008z"/>
  <g id="_917958808">
   <path id="_917967424" class="fil1" d="M1.0908 0.416504c0,-0.225008 -0.183693,-0.407406 -0.410299,-0.407406l-0.671492 0 0 0.251925 0.671492 0 0 -1.1811e-005c0.0864921,0 0.156594,0.0696102 0.156594,0.155492 0,0.085878 -0.0701024,0.155492 -0.156594,0.155492l0 6.69291e-005 -0.671465 0 0 0.251925 0.671465 0 0 9.44882e-005c0.0864921,0 0.156594,0.0696102 0.156594,0.155492 0,0.0858661 -0.0701024,0.155492 -0.156594,0.155492l0 5.51181e-005 -0.418598 0 0 -0.0874567 -0.253717 0 0 0.339232 0.000822835 0 0 0.000149606 0.671492 0 0 -7.08661e-005c0.226606,0 0.410299,-0.182406 0.410299,-0.407402 0,-0.109252 -0.0433976,-0.20837 -0.113886,-0.281543 0.0704882,-0.0731535 0.113886,-0.172276 0.113886,-0.281528z"/>
   <path id="_917966968" class="fil2" d="M1.09093 0.979638c0,0.225008 0.183693,0.407406 0.410295,0.407406l0.671496 0 0 -0.251925 -0.671496 0 0 1.5748e-005c-0.0864882,0 -0.156594,-0.0696142 -0.156594,-0.155496 0,-0.085878 0.0701063,-0.155492 0.156594,-0.155492l0 -6.69291e-005 0.671469 0 0 -0.251925 -0.671469 0 0 -9.44882e-005c-0.0864882,0 -0.156594,-0.0696102 -0.156594,-0.155492 0,-0.0858661 0.0701063,-0.155492 0.156594,-0.155492l0 -5.51181e-005 0.418602 0 0 0.0874567 0.253717 0 0 -0.339232 -0.000822835 0 0 -0.000149606 -0.671496 0 0 7.08661e-005c-0.226602,0 -0.410295,0.182406 -0.410295,0.407402 0,0.109252 0.0433976,0.20837 0.113886,0.281543 -0.0704882,0.0731535 -0.113886,0.17228 -0.113886,0.281528z"/>
  </g>
  <path class="fil1" d="M0.0124567 1.82652l0 -0.354157 0.10074 0c0.0306024,0 0.0548819,0.00750394 0.0728386,0.0224252 0.0179567,0.0150039 0.0269764,0.034563 0.0269764,0.0585906 0,0.020063 -0.00548031,0.0375157 -0.0163543,0.0523504 -0.010874,0.0148386 -0.0257953,0.025378 -0.0449331,0.0316142l0 0.00101181c0.0238583,0.00278346 0.0429921,0.0118031 0.0573268,0.0269764 0.0143307,0.0152598 0.0214961,0.0350709 0.0214961,0.059437 0,0.0302638 -0.010874,0.0547953 -0.032626,0.0735945 -0.021748,0.0187992 -0.0491496,0.0281575 -0.0822795,0.0281575l-0.103185 0zm0.0414764 -0.316642l0 0.114398 0.0424882 0c0.0226772,0 0.0405512,-0.00548031 0.0536181,-0.016437 0.0129803,-0.0109606 0.0194724,-0.0263898 0.0194724,-0.0463661 0,-0.0343976 -0.0225945,-0.0515945 -0.0679488,-0.0515945l-0.0476299 0zm0 0.151661l0 0.127465 0.056315 0c0.0243622,0 0.043248,-0.00581496 0.0566496,-0.0172795 0.0134055,-0.0115512 0.0201496,-0.0274016 0.0201496,-0.0474646 0,-0.041815 -0.0284961,-0.0627205 -0.0854843,-0.0627205l-0.0476299 0zm0.391165 0.170882c-0.0502441,0 -0.0904567,-0.0165236 -0.120638,-0.0496535 -0.0301811,-0.0330472 -0.0453543,-0.076126 -0.0453543,-0.129154 0,-0.0569882 0.0154252,-0.102429 0.0461969,-0.136319 0.0307717,-0.0338898 0.072752,-0.0508346 0.125697,-0.0508346 0.0489803,0 0.0883504,0.0164409 0.118189,0.0493189 0.0299252,0.0329606 0.0448465,0.0760394 0.0448465,0.129236 0,0.057748 -0.0153425,0.103441 -0.0459449,0.137075 -0.0305984,0.0335551 -0.0715669,0.0503307 -0.122992,0.0503307zm0.00294882 -0.328445c-0.0371772,0 -0.0674409,0.0134055 -0.090626,0.0402126 -0.0231811,0.0268937 -0.034815,0.0621299 -0.034815,0.105717 0,0.0436693 0.0112953,0.0787402 0.0339724,0.105378 0.0225945,0.0265551 0.052185,0.039874 0.0885197,0.039874 0.0388622,0 0.0694646,-0.0126457 0.0918898,-0.0380197 0.0224213,-0.025374 0.0335472,-0.0608661 0.0335472,-0.106476 0,-0.0467874 -0.0107913,-0.0828661 -0.0325354,-0.108413 -0.021752,-0.0255433 -0.0517638,-0.0382717 -0.0899528,-0.0382717zm0.37835 0.328445c-0.0502441,0 -0.0904567,-0.0165236 -0.120638,-0.0496535 -0.0301811,-0.0330472 -0.0453543,-0.076126 -0.0453543,-0.129154 0,-0.0569882 0.0154252,-0.102429 0.0461969,-0.136319 0.0307717,-0.0338898 0.072752,-0.0508346 0.125697,-0.0508346 0.0489803,0 0.0883504,0.0164409 0.118193,0.0493189 0.0299252,0.0329606 0.0448465,0.0760394 0.0448465,0.129236 0,0.057748 -0.0153425,0.103441 -0.0459449,0.137075 -0.0306024,0.0335551 -0.0715709,0.0503307 -0.122996,0.0503307zm0.00294882 -0.328445c-0.0371772,0 -0.0674409,0.0134055 -0.090626,0.0402126 -0.0231811,0.0268937 -0.034815,0.0621299 -0.034815,0.105717 0,0.0436693 0.0112953,0.0787402 0.0339724,0.105378 0.0225945,0.0265551 0.052185,0.039874 0.0885197,0.039874 0.0388622,0 0.0694646,-0.0126457 0.0918898,-0.0380197 0.0224252,-0.025374 0.0335512,-0.0608661 0.0335512,-0.106476 0,-0.0467874 -0.0107913,-0.0828661 -0.0325394,-0.108413 -0.021752,-0.0255433 -0.0517638,-0.0382717 -0.0899528,-0.0382717zm0.419323 0.322543l-0.183693 0 0 -0.354157 0.0414764 0 0 0.316642 0.142217 0 0 0.0375157zm0.242035 0l-0.187657 0 0 -0.354157 0.179815 0 0 0.0375157 -0.138339 0 0 0.117854 0.127972 0 0 0.0372638 -0.127972 0 0 0.124008 0.146181 0 0 0.0375157zm0.34235 0l-0.0459449 0 -0.0375118 -0.099311 -0.150228 0 -0.0353228 0.099311 -0.0462008 0 0.135898 -0.354157 0.0429961 0 0.136315 0.354157zm-0.0971142 -0.136571l-0.0555551 -0.150902c-0.00177165,-0.00497638 -0.00362598,-0.0129016 -0.00539764,-0.023689l-0.00101181 0c-0.00168504,0.0100315 -0.00353937,0.0178701 -0.00564567,0.023689l-0.0551339 0.150902 0.122744 0zm0.434744 0.136571l-0.0509173 0 -0.182264 -0.282331c-0.0046378,-0.00708268 -0.00842913,-0.0145 -0.0113819,-0.0221732l-0.00143307 0c0.00126378,0.00758661 0.00194094,0.0237756 0.00194094,0.0486457l0 0.255858 -0.0414764 0 0 -0.354157 0.0537835 0 0.177374 0.277862c0.00741732,0.0114646 0.0122244,0.0193898 0.0143307,0.023689l0.00101181 0c-0.00168504,-0.0102008 -0.00252756,-0.0275669 -0.00252756,-0.0520984l0 -0.249453 0.0415591 0 0 0.354157z"/>
 </g>
</svg>
