<?xml version="1.0" encoding="UTF-8"?>
<!DOCTYPE svg PUBLIC "-//W3C//DTD SVG 1.1//EN" "http://www.w3.org/Graphics/SVG/1.1/DTD/svg11.dtd">
<!-- Creator: CorelDRAW -->
<svg xmlns="http://www.w3.org/2000/svg" xml:space="preserve" width="2.1in" height="1.6in" style="shape-rendering:geometricPrecision; text-rendering:geometricPrecision; image-rendering:optimizeQuality; fill-rule:evenodd; clip-rule:evenodd"
viewBox="0 0 2.1 1.6"
 xmlns:xlink="http://www.w3.org/1999/xlink">
 <defs>
  <style type="text/css">
   <![CDATA[
    .fil1 {fill:#535353;fill-rule:nonzero}
    .fil0 {fill:#9F2F31;fill-rule:nonzero}
   ]]>
  </style>
 </defs>
 <g id="Layer_x0020_1">
  <metadata id="CorelCorpID_0Corel-Layer"/>
  <path class="fil0" d="M1.05233 0.490382c0,-0.244941 -0.169665,-0.443492 -0.378969,-0.443492l-0.620217 0 0 0.27424 0.620217 0 0 -1.1811e-005c0.0798898,0 0.144638,0.0757756 0.144638,0.169264 0,0.0934843 -0.064748,0.169264 -0.144638,0.169264l0 7.08661e-005 -0.620189 0 0 0.27424 0.620189 0 0 0.000102362c0.0798898,0 0.144638,0.0757756 0.144638,0.169264 0,0.0934724 -0.064748,0.169264 -0.144638,0.169264l0 5.90551e-005 -0.386634 0 0 -0.0952008 -0.234339 0 0 0.369276 0.000755906 0 0 0.000165354 0.620217 0 0 -7.48031e-005c0.209303,0 0.378969,-0.198563 0.378969,-0.443488 0,-0.118929 -0.0400827,-0.226827 -0.105189,-0.30648 0.0651063,-0.0796339 0.105189,-0.187531 0.105189,-0.306461z"/>
  <path class="fil1" d="M1.05244 1.10339c0,0.244941 0.169665,0.443492 0.378965,0.443492l0.62022 0 0 -0.27424 -0.62022 0 0 1.9685e-005c-0.0798819,0 -0.144638,-0.0757835 -0.144638,-0.169272 0,-0.0934843 0.0647559,-0.169264 0.144638,-0.169264l0 -7.08661e-005 0.620193 0 0 -0.27424 -0.620193 0 0 -0.000102362c-0.0798819,0 -0.144638,-0.0757756 -0.144638,-0.169264 0,-0.0934724 0.0647559,-0.169264 0.144638,-0.169264l0 -5.90551e-005 0.386638 0 0 0.0952008 0.234343 0 0 -0.369276 -0.000759843 0 0 -0.000165354 -0.62022 0 0 7.48031e-005c-0.209299,0 -0.378965,0.198563 -0.378965,0.443488 0,0.118929 0.0400827,0.226827 0.105189,0.30648 -0.0651063,0.0796339 -0.105189,0.187535 -0.105189,0.306461z"/>
 </g>
</svg>
